<svg width="16" height="16" viewBox="0 0 16 16" fill="none" xmlns="http://www.w3.org/2000/svg">
<g clip-path="url(#clip0_2055_68)">
<path d="M16 14.68V15.2C16 15.4122 15.9157 15.6157 15.7657 15.7657C15.6157 15.9157 15.4122 16 15.2 16H13.6C9.99306 16 6.53384 14.5671 3.98335 12.0167C1.43285 9.46616 0 6.00694 0 2.4L0 0.8C0 0.587827 0.0842855 0.384344 0.234315 0.234315C0.384344 0.0842855 0.587827 0 0.8 0L4 0C4.21217 0 4.41566 0.0842855 4.56569 0.234315C4.71571 0.384344 4.8 0.587827 4.8 0.8V4C4.8 4.448 4.552 5.048 4.24 5.36L2.528 7.072C3.744 9.952 6.048 12.256 8.928 13.472L10.624 11.776C10.944 11.456 11.544 11.208 11.984 11.208H15.2C15.4108 11.2101 15.6122 11.2953 15.7605 11.4451C15.9088 11.5949 15.992 11.7972 15.992 12.008V14.688L16 14.68Z" fill="white"/>
</g>
<defs>
<clipPath id="clip0_2055_68">
<rect width="16" height="16" fill="white"/>
</clipPath>
</defs>
</svg>
