<svg width="16" height="16" viewBox="0 0 16 16" fill="none" xmlns="http://www.w3.org/2000/svg">
<path fill-rule="evenodd" clip-rule="evenodd" d="M6.94805 0.609431C7.20137 0.378211 7.53198 0.25 7.875 0.25C8.21802 0.25 8.54863 0.378211 8.80195 0.609431C8.80234 0.609787 8.80273 0.610144 8.80312 0.610501L15.0513 6.2885L15.0618 6.29829C15.1975 6.42638 15.3061 6.58033 15.3813 6.75105C15.4566 6.92177 15.4969 7.10581 15.4999 7.29236L15.5001 7.30449L15.5 14.5311C15.5 14.8957 15.3551 15.2455 15.0973 15.5033C14.8394 15.7612 14.4897 15.9061 14.125 15.9061H1.625C1.26033 15.9061 0.910592 15.7612 0.652728 15.5033C0.394866 15.2455 0.25 14.8957 0.25 14.5311V7.29235C0.253018 7.10582 0.293428 6.92177 0.368662 6.75105C0.443895 6.58033 0.552527 6.42638 0.688163 6.29829L0.698724 6.2885L6.94688 0.610501C6.94726 0.610144 6.94766 0.609788 6.94805 0.609431ZM7.875 1.79391L1.75 7.36V14.4061H14V7.36L7.875 1.79391Z" fill="white"/>
</svg>
