<svg width="16" height="16" viewBox="0 0 16 16" fill="none" xmlns="http://www.w3.org/2000/svg">
<path d="M4.625 5.375H2V14H4.625V5.375Z" fill="white"/>
<path d="M11.0011 5.375C9.5 5.375 9.08375 5.867 8.75 6.5V5.375H6.125V14H8.75V9.125C8.75 8.375 8.75 7.625 10.0625 7.625C11.375 7.625 11.375 8.375 11.375 9.125V14H14V9.125C14 6.875 13.625 5.375 11.0011 5.375Z" fill="white"/>
<path d="M3.3125 4.625C4.03737 4.625 4.625 4.03737 4.625 3.3125C4.625 2.58763 4.03737 2 3.3125 2C2.58763 2 2 2.58763 2 3.3125C2 4.03737 2.58763 4.625 3.3125 4.625Z" fill="white"/>
</svg>
