<svg width="16" height="16" viewBox="0 0 16 16" fill="none" xmlns="http://www.w3.org/2000/svg">
<g clip-path="url(#clip0_2012_121)">
<path d="M7.82502 0C5.69986 0 5.43338 0.0090078 4.59876 0.0470891C3.76588 0.0851082 3.19706 0.217368 2.6993 0.410818C2.18473 0.610791 1.74835 0.878354 1.31334 1.31337C0.878323 1.74838 0.61076 2.18476 0.410787 2.69933C0.217337 3.19706 0.0850771 3.76588 0.047058 4.59876C0.00897674 5.43338 0 5.69986 0 7.82502C0 9.95014 0.00897674 10.2166 0.047058 11.0512C0.0850771 11.8841 0.217337 12.4529 0.410787 12.9507C0.61076 13.4652 0.878323 13.9016 1.31334 14.3367C1.74835 14.7717 2.18473 15.0392 2.6993 15.2392C3.19706 15.4326 3.76588 15.5649 4.59876 15.6029C5.43338 15.641 5.69986 15.65 7.82502 15.65C9.95014 15.65 10.2166 15.641 11.0512 15.6029C11.8841 15.5649 12.4529 15.4326 12.9507 15.2392C13.4652 15.0392 13.9016 14.7717 14.3367 14.3367C14.7717 13.9016 15.0392 13.4652 15.2392 12.9507C15.4326 12.4529 15.5649 11.8841 15.6029 11.0512C15.641 10.2166 15.65 9.95014 15.65 7.82502C15.65 5.69986 15.641 5.43338 15.6029 4.59876C15.5649 3.76588 15.4326 3.19706 15.2392 2.69933C15.0392 2.18476 14.7717 1.74838 14.3367 1.31337C13.9016 0.878354 13.4652 0.610791 12.9507 0.410818C12.4529 0.217368 11.8841 0.0851082 11.0512 0.0470891C10.2166 0.0090078 9.95014 0 7.82502 0ZM7.82502 1.40994C9.91436 1.40994 10.1619 1.41789 10.987 1.45554C11.7499 1.49036 12.1642 1.61783 12.44 1.72496C12.8052 1.86691 13.0659 2.03651 13.3397 2.31031C13.6135 2.58412 13.7831 2.84482 13.925 3.21004C14.0322 3.48577 14.1597 3.9001 14.1945 4.66303C14.2321 5.48814 14.2401 5.73564 14.2401 7.82502C14.2401 9.91436 14.2321 10.1619 14.1945 10.987C14.1597 11.7499 14.0322 12.1642 13.925 12.44C13.7831 12.8052 13.6135 13.0659 13.3397 13.3397C13.0659 13.6135 12.8052 13.7831 12.44 13.925C12.1642 14.0322 11.7499 14.1597 10.987 14.1945C10.162 14.2321 9.91451 14.2401 7.82502 14.2401C5.73548 14.2401 5.48805 14.2321 4.66303 14.1945C3.9001 14.1597 3.48577 14.0322 3.21004 13.925C2.84479 13.7831 2.58412 13.6135 2.31028 13.3397C2.03648 13.0659 1.86688 12.8052 1.72496 12.44C1.6178 12.1642 1.49033 11.7499 1.45551 10.987C1.41786 10.1619 1.40991 9.91436 1.40991 7.82502C1.40991 5.73564 1.41786 5.48814 1.45551 4.66303C1.49033 3.9001 1.6178 3.48577 1.72496 3.21004C1.86688 2.84482 2.03648 2.58412 2.31028 2.31031C2.58412 2.03651 2.84479 1.86691 3.21004 1.72496C3.48577 1.61783 3.9001 1.49036 4.66303 1.45554C5.48814 1.41789 5.73564 1.40994 7.82502 1.40994Z" fill="white"/>
<path d="M7.8249 10.4337C6.38433 10.4337 5.21655 9.26592 5.21655 7.82538C5.21655 6.38482 6.38433 5.21704 7.8249 5.21704C9.26543 5.21704 10.4332 6.38482 10.4332 7.82538C10.4332 9.26592 9.26543 10.4337 7.8249 10.4337ZM7.8249 3.80713C5.60565 3.80713 3.80664 5.60614 3.80664 7.82538C3.80664 10.0446 5.60565 11.8436 7.8249 11.8436C10.0441 11.8436 11.8431 10.0446 11.8431 7.82538C11.8431 5.60614 10.0441 3.80713 7.8249 3.80713Z" fill="white"/>
<path d="M12.9415 3.64748C12.9415 4.16608 12.5211 4.58647 12.0025 4.58647C11.4839 4.58647 11.0635 4.16608 11.0635 3.64748C11.0635 3.12888 11.4839 2.7085 12.0025 2.7085C12.5211 2.7085 12.9415 3.12888 12.9415 3.64748Z" fill="white"/>
</g>
<defs>
<clipPath id="clip0_2012_121">
<rect width="16" height="16" fill="white"/>
</clipPath>
</defs>
</svg>
