<svg width="546" height="286" viewBox="0 0 546 286" fill="none" xmlns="http://www.w3.org/2000/svg">
<g clip-path="url(#clip0_2106_501)">
<path fill-rule="evenodd" clip-rule="evenodd" d="M90.609 378.271C133.849 378.271 168.902 343.218 168.902 299.977C168.902 256.737 133.849 221.684 90.609 221.684C47.3689 221.684 12.3158 256.737 12.3158 299.977C12.3158 343.218 47.3689 378.271 90.609 378.271ZM90.609 390.586C140.651 390.586 181.218 350.019 181.218 299.977C181.218 249.935 140.651 209.368 90.609 209.368C40.567 209.368 0 249.935 0 299.977C0 350.019 40.567 390.586 90.609 390.586Z" fill="white"/>
<path fill-rule="evenodd" clip-rule="evenodd" d="M97.0598 81.5188C98.8412 81.5188 100.285 82.963 100.285 84.7444C100.285 86.5258 98.8412 87.97 97.0598 87.97C95.2784 87.97 93.8342 86.5258 93.8342 84.7444C93.8342 82.963 95.2784 81.5188 97.0598 81.5188ZM97.0598 78C100.785 78 103.804 81.0196 103.804 84.7444C103.804 88.4692 100.785 91.4888 97.0598 91.4888C93.335 91.4888 90.3154 88.4692 90.3154 84.7444C90.3154 81.0196 93.335 78 97.0598 78Z" fill="white"/>
<path fill-rule="evenodd" clip-rule="evenodd" d="M83.2782 265.669C82.9543 265.669 82.6917 265.407 82.6917 265.083C82.6917 264.759 82.9543 264.496 83.2782 264.496C83.602 264.496 83.8646 264.759 83.8646 265.083C83.8646 265.407 83.602 265.669 83.2782 265.669ZM83.2782 253.353C89.7561 253.353 95.0075 258.605 95.0075 265.083C95.0075 271.561 89.7561 276.812 83.2782 276.812C76.8002 276.812 71.5488 271.561 71.5488 265.083C71.5488 258.605 76.8002 253.353 83.2782 253.353Z" fill="white"/>
<path fill-rule="evenodd" clip-rule="evenodd" d="M316.985 460.376C436.665 460.376 533.684 363.356 533.684 243.677C533.684 123.997 436.665 26.9774 316.985 26.9774C197.305 26.9774 100.286 123.997 100.286 243.677C100.286 363.356 197.305 460.376 316.985 460.376ZM316.985 472.692C443.467 472.692 546 370.158 546 243.677C546 117.195 443.467 14.6616 316.985 14.6616C190.504 14.6616 87.97 117.195 87.97 243.677C87.97 370.158 190.504 472.692 316.985 472.692Z" fill="white"/>
</g>
<defs>
<clipPath id="clip0_2106_501">
<rect width="546" height="286" fill="white"/>
</clipPath>
</defs>
</svg>
