<svg width="46" height="46" viewBox="0 0 46 46" fill="none" xmlns="http://www.w3.org/2000/svg">
<rect width="46" height="46" rx="10" fill="#F8463B"/>
<path d="M16.3967 29.0028C15.3036 29.1158 9.24395 32.666 11.1993 33.8187C13.2465 35.0248 16.3967 29.0028 16.3967 29.0028ZM27.742 25.7415C30.171 28.0195 34.1212 28.8947 34.1212 26.7474C34.1212 24.6016 27.742 25.7415 27.742 25.7415ZM25.8309 25.3378C25.8309 25.3378 23.6248 22.9388 22.5135 20.8995C22.5135 20.8995 21.6891 23.3164 20.8827 25.0923C20.0779 26.8683 20.0779 26.8683 20.0779 26.8683C20.0779 26.8683 21.0629 26.3774 23.0249 25.9043C24.9867 25.4316 25.8309 25.3378 25.8309 25.3378ZM21.5925 17.367C21.5925 17.367 22.6479 14.1947 22.6285 12.5689C22.6085 10.9447 22.0728 10.7186 21.5925 10.7186C21.1139 10.7186 20.5007 11.2287 20.5007 13.0982C20.5007 14.9679 21.2284 16.9895 21.5925 17.367ZM22.9168 19.8227C23.9905 22.1088 26.944 25.0537 26.944 25.0537C26.944 25.0537 27.9012 24.8083 31.8513 24.7148C35.8029 24.621 35.9751 26.8102 35.993 26.9992C36.0127 27.1897 36.1669 28.927 33.0215 29.0398C29.8779 29.153 26.6163 25.9239 26.6163 25.9239C26.6163 25.9239 25.2754 26.1321 24.1641 26.3955C23.0528 26.6601 19.4847 27.624 19.4847 27.624C19.4847 27.624 18.4292 29.5129 16.0902 32.5337C13.7498 35.556 11.1289 35.3301 10.3814 34.3288C9.51272 33.1665 10.1831 32.0059 11.832 30.4945C13.4808 28.9834 17.2851 27.7305 17.2851 27.7305C17.2851 27.7305 18.0522 26.3711 19.1766 23.7766C20.3008 21.1822 21.1516 18.5763 21.1516 18.5763C21.1516 18.5763 20.0386 16.0868 19.8222 13.9686C19.5797 11.6066 19.8485 10.0196 21.6891 10.0002C23.5299 9.98081 24.1051 11.3418 24.1625 13.7021C24.2198 16.0643 22.9168 19.8227 22.9168 19.8227Z" fill="white"/>
</svg>
