<svg width="12" height="12" viewBox="0 0 12 12" fill="none" xmlns="http://www.w3.org/2000/svg">
<path d="M6.41397 5.836C6.30372 5.9355 6.16049 5.99058 6.01197 5.99058C5.86346 5.99058 5.72022 5.9355 5.60997 5.836L0.521973 1.21C0.721627 1.07323 0.957968 1.00003 1.19997 1H10.8C11.042 1.00003 11.2783 1.07323 11.478 1.21L6.41397 5.836Z" fill="#115FAA"/>
<path d="M12 2.35602V8.80002C12 9.27741 11.8104 9.73525 11.4728 10.0728C11.1352 10.4104 10.6774 10.6 10.2 10.6H1.8C1.32261 10.6 0.864773 10.4104 0.527208 10.0728C0.189642 9.73525 0 9.27741 0 8.80002V2.35602L5.208 7.10802C5.42764 7.29878 5.70909 7.40326 6 7.40202C6.29454 7.40141 6.57857 7.2925 6.798 7.09602L12 2.35602Z" fill="#115FAA"/>
</svg>
