<svg width="22" height="22" viewBox="0 0 22 22" fill="none" xmlns="http://www.w3.org/2000/svg">
<circle cx="11" cy="11" r="11" fill="#40BE6B"/>
<g clip-path="url(#clip0_127_724)">
<path d="M14.2822 14.6976C14.2514 14.5422 14.0985 14.4428 13.9441 14.478C13.6935 14.5352 13.3014 14.6049 12.8794 14.6049C11.5491 14.6049 10.4905 13.7895 10.0327 12.6022H12.6973C12.7612 12.6022 12.8231 12.5804 12.873 12.5405C12.9229 12.5006 12.9577 12.4449 12.9717 12.3826L13.1211 11.7179C13.1606 11.5421 13.0269 11.375 12.8466 11.375H9.70047C9.67211 11.0392 9.66733 10.712 9.70368 10.3849H13.1395C13.2036 10.3849 13.2658 10.363 13.3158 10.3227C13.3658 10.2825 13.4005 10.2264 13.4142 10.1638L13.5668 9.46639C13.6052 9.29098 13.4717 9.125 13.2921 9.125H10.0512C10.5348 8.07052 11.5205 7.36648 12.8079 7.36648C13.1474 7.36648 13.4774 7.41922 13.695 7.46363C13.8407 7.49335 13.9844 7.40509 14.0232 7.26153L14.3042 6.22166C14.3469 6.06366 14.2465 5.90253 14.0856 5.87204C13.802 5.81825 13.3448 5.75 12.8508 5.75C10.5731 5.75 8.73508 7.16216 8.05645 9.125H7.28125C7.12593 9.125 7 9.25093 7 9.40625V10.1036C7 10.259 7.12593 10.3849 7.28125 10.3849H7.78677C7.76313 10.7038 7.75909 11.0713 7.78253 11.375H7.28125C7.12593 11.375 7 11.5009 7 11.6562V12.3209C7 12.4763 7.12593 12.6022 7.28125 12.6022H7.98705C8.57357 14.7193 10.4046 16.25 12.8508 16.25C13.4672 16.25 13.989 16.1435 14.2829 16.0675C14.4274 16.0301 14.5179 15.8868 14.4888 15.7404L14.2822 14.6976Z" fill="white"/>
</g>
<defs>
<clipPath id="clip0_127_724">
<rect width="7.5" height="12" fill="white" transform="translate(7 5)"/>
</clipPath>
</defs>
</svg>
