<svg aria-hidden="true" xmlns="http://www.w3.org/2000/svg" xmlns:xlink="http://www.w3.org/1999/xlink"><symbol viewBox="0 0 14 22" id="arrow-slider" xmlns="http://www.w3.org/2000/svg">
<path fill-rule="evenodd" clip-rule="evenodd" d="M3.41391 0.585938L0.585484 3.41436L8.17127 11.0002L0.585484 18.5859L3.41391 21.4144L13.8281 11.0002L3.41391 0.585938Z"/>
</symbol><symbol viewBox="0 0 23 18" id="burger" xmlns="http://www.w3.org/2000/svg">
<path fill-rule="evenodd" clip-rule="evenodd" d="M10.2222 17.9437H0V15.3882H10.2222V17.9437Z"/>
<path fill-rule="evenodd" clip-rule="evenodd" d="M23 10.2787H0V7.72314H23V10.2787Z"/>
<path fill-rule="evenodd" clip-rule="evenodd" d="M23 2.61122H0V0.0556641H23V2.61122Z"/>
</symbol><symbol viewBox="0 0 10 17" id="chevron-link" xmlns="http://www.w3.org/2000/svg">
<path fill-rule="evenodd" clip-rule="evenodd" d="M7.4394 8.50006L0.469727 1.53039L1.53039 0.469727L9.56072 8.50006L1.53039 16.5304L0.469727 15.4697L7.4394 8.50006Z"/>
</symbol><symbol viewBox="0 0 8 6" id="chevron-select" xmlns="http://www.w3.org/2000/svg">
<path fill-rule="evenodd" clip-rule="evenodd" d="M0.469727 1.53039L1.53039 0.469727L4.00006 2.9394L6.46973 0.469727L7.53039 1.53039L4.00006 5.06072L0.469727 1.53039Z"/>
</symbol><symbol viewBox="0 0 16 16" id="facebook" xmlns="http://www.w3.org/2000/svg">
<path d="M8.66667 5.66667V4.2776C8.66667 3.65052 8.80521 3.33333 9.77865 3.33333H11V1H8.96198C6.46458 1 5.64062 2.14479 5.64062 4.1099V5.66667H4V8H5.64062V15H8.66667V8H10.7229L11 5.66667H8.66667Z"/>
</symbol><symbol viewBox="0 0 16 16" id="in" xmlns="http://www.w3.org/2000/svg">
<path d="M4.625 5.375H2V14H4.625V5.375Z"/>
<path d="M11.0011 5.375C9.5 5.375 9.08375 5.867 8.75 6.5V5.375H6.125V14H8.75V9.125C8.75 8.375 8.75 7.625 10.0625 7.625C11.375 7.625 11.375 8.375 11.375 9.125V14H14V9.125C14 6.875 13.625 5.375 11.0011 5.375Z"/>
<path d="M3.3125 4.625C4.03737 4.625 4.625 4.03737 4.625 3.3125C4.625 2.58763 4.03737 2 3.3125 2C2.58763 2 2 2.58763 2 3.3125C2 4.03737 2.58763 4.625 3.3125 4.625Z"/>
</symbol><symbol viewBox="0 0 16 16" id="inst" xmlns="http://www.w3.org/2000/svg">
<g clip-path="url(#gclip0_2012_121)">
<path d="M7.82502 0C5.69986 0 5.43338 0.0090078 4.59876 0.0470891C3.76588 0.0851082 3.19706 0.217368 2.6993 0.410818C2.18473 0.610791 1.74835 0.878354 1.31334 1.31337C0.878323 1.74838 0.61076 2.18476 0.410787 2.69933C0.217337 3.19706 0.0850771 3.76588 0.047058 4.59876C0.00897674 5.43338 0 5.69986 0 7.82502C0 9.95014 0.00897674 10.2166 0.047058 11.0512C0.0850771 11.8841 0.217337 12.4529 0.410787 12.9507C0.61076 13.4652 0.878323 13.9016 1.31334 14.3367C1.74835 14.7717 2.18473 15.0392 2.6993 15.2392C3.19706 15.4326 3.76588 15.5649 4.59876 15.6029C5.43338 15.641 5.69986 15.65 7.82502 15.65C9.95014 15.65 10.2166 15.641 11.0512 15.6029C11.8841 15.5649 12.4529 15.4326 12.9507 15.2392C13.4652 15.0392 13.9016 14.7717 14.3367 14.3367C14.7717 13.9016 15.0392 13.4652 15.2392 12.9507C15.4326 12.4529 15.5649 11.8841 15.6029 11.0512C15.641 10.2166 15.65 9.95014 15.65 7.82502C15.65 5.69986 15.641 5.43338 15.6029 4.59876C15.5649 3.76588 15.4326 3.19706 15.2392 2.69933C15.0392 2.18476 14.7717 1.74838 14.3367 1.31337C13.9016 0.878354 13.4652 0.610791 12.9507 0.410818C12.4529 0.217368 11.8841 0.0851082 11.0512 0.0470891C10.2166 0.0090078 9.95014 0 7.82502 0ZM7.82502 1.40994C9.91436 1.40994 10.1619 1.41789 10.987 1.45554C11.7499 1.49036 12.1642 1.61783 12.44 1.72496C12.8052 1.86691 13.0659 2.03651 13.3397 2.31031C13.6135 2.58412 13.7831 2.84482 13.925 3.21004C14.0322 3.48577 14.1597 3.9001 14.1945 4.66303C14.2321 5.48814 14.2401 5.73564 14.2401 7.82502C14.2401 9.91436 14.2321 10.1619 14.1945 10.987C14.1597 11.7499 14.0322 12.1642 13.925 12.44C13.7831 12.8052 13.6135 13.0659 13.3397 13.3397C13.0659 13.6135 12.8052 13.7831 12.44 13.925C12.1642 14.0322 11.7499 14.1597 10.987 14.1945C10.162 14.2321 9.91451 14.2401 7.82502 14.2401C5.73548 14.2401 5.48805 14.2321 4.66303 14.1945C3.9001 14.1597 3.48577 14.0322 3.21004 13.925C2.84479 13.7831 2.58412 13.6135 2.31028 13.3397C2.03648 13.0659 1.86688 12.8052 1.72496 12.44C1.6178 12.1642 1.49033 11.7499 1.45551 10.987C1.41786 10.1619 1.40991 9.91436 1.40991 7.82502C1.40991 5.73564 1.41786 5.48814 1.45551 4.66303C1.49033 3.9001 1.6178 3.48577 1.72496 3.21004C1.86688 2.84482 2.03648 2.58412 2.31028 2.31031C2.58412 2.03651 2.84479 1.86691 3.21004 1.72496C3.48577 1.61783 3.9001 1.49036 4.66303 1.45554C5.48814 1.41789 5.73564 1.40994 7.82502 1.40994Z"/>
<path d="M7.8249 10.4337C6.38433 10.4337 5.21655 9.26592 5.21655 7.82538C5.21655 6.38482 6.38433 5.21704 7.8249 5.21704C9.26543 5.21704 10.4332 6.38482 10.4332 7.82538C10.4332 9.26592 9.26543 10.4337 7.8249 10.4337ZM7.8249 3.80713C5.60565 3.80713 3.80664 5.60614 3.80664 7.82538C3.80664 10.0446 5.60565 11.8436 7.8249 11.8436C10.0441 11.8436 11.8431 10.0446 11.8431 7.82538C11.8431 5.60614 10.0441 3.80713 7.8249 3.80713Z"/>
<path d="M12.9415 3.64748C12.9415 4.16608 12.5211 4.58647 12.0025 4.58647C11.4839 4.58647 11.0635 4.16608 11.0635 3.64748C11.0635 3.12888 11.4839 2.7085 12.0025 2.7085C12.5211 2.7085 12.9415 3.12888 12.9415 3.64748Z"/>
</g>
<defs>
<clipPath id="gclip0_2012_121">
<rect width="16" height="16"/>
</clipPath>
</defs>
</symbol><symbol viewBox="0 0 15 15" id="search" xmlns="http://www.w3.org/2000/svg">
<path d="M14.7406 13.4674L11.3469 10.0737C12.164 8.98606 12.605 7.66213 12.6035 6.30177C12.6035 2.827 9.77655 0 6.30177 0C2.827 0 0 2.827 0 6.30177C0 9.77655 2.827 12.6035 6.30177 12.6035C7.66213 12.605 8.98606 12.164 10.0737 11.3469L13.4674 14.7406C13.6392 14.8941 13.8632 14.9761 14.0935 14.9696C14.3239 14.9632 14.543 14.8688 14.7059 14.7059C14.8688 14.543 14.9632 14.3239 14.9696 14.0935C14.9761 13.8632 14.8941 13.6392 14.7406 13.4674ZM1.80051 6.30177C1.80051 5.4115 2.0645 4.54123 2.55911 3.801C3.05371 3.06077 3.75671 2.48383 4.57921 2.14314C5.40171 1.80245 6.30676 1.71331 7.17992 1.887C8.05308 2.06068 8.85513 2.48938 9.48465 3.1189C10.1142 3.74841 10.5429 4.55046 10.7165 5.42362C10.8902 6.29678 10.8011 7.20183 10.4604 8.02433C10.1197 8.84683 9.54277 9.54983 8.80254 10.0444C8.06231 10.539 7.19204 10.803 6.30177 10.803C5.1084 10.8016 3.96432 10.3269 3.12048 9.48307C2.27664 8.63922 1.80194 7.49514 1.80051 6.30177Z"/>
</symbol></svg>