<svg width="12" height="12" viewBox="0 0 12 12" fill="none" xmlns="http://www.w3.org/2000/svg">
<path d="M1.00079 4.76891C0.989289 4.97441 1.10429 5.16591 1.29129 5.25191L5.04329 6.97291L6.76429 10.7244C6.84629 10.9024 7.02429 11.0159 7.21879 11.0159L7.24729 11.0149C7.34764 11.0093 7.44397 10.9736 7.5237 10.9124C7.60344 10.8512 7.66289 10.7674 7.69429 10.6719L10.4918 2.15591C10.5503 1.97691 10.5033 1.77941 10.3703 1.64591C10.2373 1.51241 10.0403 1.46691 9.86029 1.52441L1.34379 4.32241C1.24828 4.3536 1.16442 4.41292 1.10322 4.4926C1.04201 4.57228 1.00631 4.66859 1.00079 4.76891Z" fill="#115FAA"/>
</svg>
