<svg width="22" height="22" viewBox="0 0 22 22" fill="none" xmlns="http://www.w3.org/2000/svg">
<path d="M15.7827 2.28809L18.3207 4.83403L18.3109 4.84339L15.8043 4.84529L15.7809 2.28998L15.7827 2.28809Z" fill="#F1F1F1"/>
<path d="M8.96954 6.30642C8.96954 6.78947 8.6997 7.01764 8.28552 7.01437C8.22885 7.01437 8.16555 7.01437 8.12671 7.00548V5.68281C8.16555 5.67392 8.23164 5.66455 8.33378 5.66455C8.72638 5.66459 8.97238 5.88666 8.96954 6.30642Z" fill="#F1F1F1"/>
<path d="M6.92352 5.95551C6.92352 6.16257 6.77356 6.28581 6.53091 6.28581C6.46483 6.28581 6.41657 6.28254 6.37769 6.27365V5.67672C6.41094 5.66783 6.47372 5.65894 6.56649 5.65894C6.79465 5.65894 6.92352 5.76949 6.92352 5.95551Z" fill="#F1F1F1"/>
<path d="M5.39898 4.06592H13.2701V8.61055H5.39898H5.37977H3.71228V4.06592H5.37973H5.39898Z" fill="#F1F1F1"/>
<path d="M12.082 10.9571C12.0876 11.4289 11.7858 12.3495 11.7858 12.3495C11.6818 12.2399 11.4738 11.6533 11.4738 11.1107C11.4738 10.5682 11.649 10.4202 11.7858 10.4202C11.9231 10.4202 12.0763 10.4858 12.082 10.9571Z" fill="#DC1D00"/>
<path d="M15.3672 15.0716C15.3672 15.6947 14.2381 15.4407 13.5437 14.7797C13.5437 14.7797 15.3672 14.4489 15.3672 15.0716Z" fill="#DC1D00"/>
<path d="M8.81497 17.1236C8.25604 16.7891 9.98815 15.7588 10.3007 15.7261C10.3007 15.7261 9.40017 17.4736 8.81497 17.1236Z" fill="#DC1D00"/>
<path d="M12.0491 13.3745C12.3668 13.9663 12.9974 14.6625 12.9974 14.6625C12.9974 14.6625 12.7561 14.6897 12.1953 14.8269C11.6344 14.9642 11.3529 15.1067 11.3529 15.1067C11.3529 15.1067 11.3529 15.1067 11.583 14.5913C11.8134 14.0759 12.0491 13.3745 12.0491 13.3745Z" fill="#DC1D00"/>
<path d="M18.3301 4.84327V19.7146H5.39893V8.61065H13.27V4.06601H5.39893V2.28564H15.7809L15.7827 2.28796L15.7809 2.28981L15.8043 4.84512L18.3109 4.84323L18.3207 4.83386L18.3301 4.84327Z" fill="#DC1D00"/>
<path d="M10.3007 15.726C9.98821 15.7588 8.25605 16.789 8.81499 17.1235C9.40018 17.4735 10.3007 15.726 10.3007 15.726ZM13.5437 14.7795C14.2381 15.4406 15.3672 15.6946 15.3672 15.0715C15.3672 14.4488 13.5437 14.7795 13.5437 14.7795ZM12.9974 14.6624C12.9974 14.6624 12.3668 13.9662 12.0492 13.3744C12.0492 13.3744 11.8135 14.0758 11.583 14.5912C11.3529 15.1065 11.3529 15.1065 11.3529 15.1065C11.3529 15.1065 11.6345 14.9641 12.1953 14.8268C12.7561 14.6896 12.9974 14.6624 12.9974 14.6624ZM11.7859 12.3493C11.7859 12.3493 12.0876 11.4287 12.082 10.9569C12.0763 10.4856 11.9232 10.42 11.7859 10.42C11.6491 10.42 11.4738 10.568 11.4738 11.1105C11.4738 11.6531 11.6818 12.2397 11.7859 12.3493ZM12.1644 13.0619C12.4714 13.7253 13.3156 14.5799 13.3156 14.5799C13.3156 14.5799 13.5892 14.5087 14.7184 14.4816C15.8479 14.4544 15.8972 15.0897 15.9023 15.1445C15.9079 15.1998 15.952 15.704 15.0529 15.7367C14.1543 15.7695 13.2219 14.8325 13.2219 14.8325C13.2219 14.8325 12.8387 14.8929 12.521 14.9693C12.2033 15.0461 11.1834 15.3258 11.1834 15.3258C11.1834 15.3258 10.8817 15.874 10.2131 16.7506C9.54404 17.6277 8.79488 17.5621 8.58119 17.2716C8.33288 16.9342 8.52452 16.5975 8.99584 16.1588C9.46717 15.7203 10.5546 15.3567 10.5546 15.3567C10.5546 15.3567 10.7739 14.9622 11.0953 14.2093C11.4167 13.4564 11.6599 12.7002 11.6599 12.7002C11.6599 12.7002 11.3417 11.9778 11.2798 11.3631C11.2105 10.6777 11.2874 10.2171 11.8135 10.2115C12.3397 10.2059 12.5041 10.6008 12.5205 11.2857C12.5369 11.9713 12.1644 13.0619 12.1644 13.0619Z" fill="white"/>
<path d="M10.957 5.71509V5.32837H9.75391V7.3479H10.1836V6.53149H10.9141V6.18774H10.1836V5.71509H10.957Z" fill="#A51600"/>
<path d="M9.11341 5.52972C8.91851 5.3826 8.66018 5.31372 8.276 5.31372C8.04504 5.31372 7.82031 5.32872 7.64844 5.35587V7.34146C7.77734 7.35646 7.94007 7.37141 8.17713 7.37141C8.57304 7.37141 8.90205 7.28753 9.11475 7.11046C9.30965 6.94554 9.45308 6.67845 9.45308 6.29147C9.45308 5.93501 9.32379 5.68574 9.11341 5.52972ZM8.26126 7.01447C8.20458 7.01447 8.16406 7.01447 8.07812 7.00557V5.68291C8.16406 5.67401 8.20738 5.66465 8.30955 5.66465C8.70216 5.66465 8.94811 5.88671 8.94528 6.30651C8.94528 6.78957 8.67539 7.01773 8.26126 7.01447Z" fill="#A51600"/>
<path d="M7.16066 5.4758C7.02573 5.36756 6.80578 5.31372 6.52369 5.31372C6.24491 5.31372 6.01562 5.33198 5.88672 5.35587V7.34778H6.35938V6.6274C6.40234 6.63351 6.46461 6.63677 6.52463 6.63677C6.79448 6.63677 7.03003 6.57069 7.18609 6.4236C7.30602 6.30978 7.37434 6.14156 7.37434 5.94386C7.37434 5.74569 7.28948 5.57794 7.16066 5.4758ZM6.52175 6.28589C6.45571 6.28589 6.40234 6.28262 6.35938 6.27373V5.67681C6.40234 5.66791 6.46461 5.65902 6.55733 5.65902C6.78554 5.65902 6.91436 5.76958 6.91436 5.95559C6.91436 6.16265 6.76444 6.28589 6.52175 6.28589Z" fill="#A51600"/>
</svg>
