<svg width="12" height="12" viewBox="0 0 12 12" fill="none" xmlns="http://www.w3.org/2000/svg">
<path d="M12 11.01V11.4C12 11.5591 11.9368 11.7117 11.8243 11.8243C11.7117 11.9368 11.5591 12 11.4 12H10.2C7.49479 12 4.90038 10.9254 2.98751 9.01249C1.07464 7.09962 0 4.50521 0 1.8L0 0.6C0 0.44087 0.0632141 0.288258 0.175736 0.175736C0.288258 0.0632141 0.44087 0 0.6 0L3 0C3.15913 0 3.31174 0.0632141 3.42426 0.175736C3.53679 0.288258 3.6 0.44087 3.6 0.6V3C3.6 3.336 3.414 3.786 3.18 4.02L1.896 5.304C2.808 7.464 4.536 9.192 6.696 10.104L7.968 8.832C8.208 8.592 8.658 8.406 8.988 8.406H11.4C11.5581 8.40758 11.7092 8.47149 11.8204 8.58384C11.9316 8.69619 11.994 8.84791 11.994 9.006V11.016L12 11.01Z" fill="#115FAA"/>
</svg>
