<svg width="117" height="117" viewBox="0 0 117 117" fill="none" xmlns="http://www.w3.org/2000/svg">
<path d="M0 20C0 8.9543 8.95431 0 20 0H70C81.0457 0 90 8.95431 90 20V70C90 81.0457 81.0457 90 70 90H28.7843C23.4799 90 18.3929 92.1071 14.6421 95.8579L5.12132 105.379C3.23142 107.269 0 105.93 0 103.257V20Z" fill="#115FAA"/>
<g clip-path="url(#clip0_66_2641)">
<path d="M43.9059 54.4687C43.6962 54.4699 43.4883 54.4297 43.2941 54.3504C43.0999 54.2711 42.9233 54.1542 42.7744 54.0065L36.3994 47.6315C36.0993 47.3314 35.9307 46.9243 35.9307 46.4999C35.9307 46.0755 36.0993 45.6685 36.3994 45.3684C36.6995 45.0683 37.1065 44.8997 37.5309 44.8997C37.9554 44.8997 38.3624 45.0683 38.6625 45.3684L43.9059 50.6277L53.9306 40.5871C54.2307 40.287 54.6378 40.1184 55.0622 40.1184C55.4866 40.1184 55.8936 40.287 56.1937 40.5871C56.4939 40.8872 56.6625 41.2943 56.6625 41.7187C56.6625 42.1431 56.4939 42.5501 56.1937 42.8502L45.0375 54.0065C44.8886 54.1542 44.712 54.2711 44.5178 54.3504C44.3236 54.4297 44.1157 54.4699 43.9059 54.4687Z" fill="white"/>
<path d="M45.5 67.2188C41.4022 67.2188 37.3965 66.0036 33.9893 63.727C30.5821 61.4504 27.9265 58.2146 26.3584 54.4287C24.7902 50.6429 24.3799 46.477 25.1794 42.458C25.9788 38.4389 27.9521 34.7472 30.8496 31.8496C33.7472 28.9521 37.4389 26.9788 41.458 26.1794C45.477 25.3799 49.6429 25.7902 53.4287 27.3584C57.2146 28.9265 60.4504 31.5821 62.727 34.9893C65.0036 38.3965 66.2188 42.4022 66.2188 46.5C66.2188 51.995 64.0359 57.2649 60.1504 61.1504C56.2649 65.0359 50.995 67.2188 45.5 67.2188ZM45.5 28.9688C42.0327 28.9688 38.6432 29.9969 35.7602 31.9233C32.8772 33.8497 30.6301 36.5877 29.3032 39.7911C27.9763 42.9945 27.6292 46.5195 28.3056 49.9202C28.9821 53.3209 30.6518 56.4447 33.1035 58.8965C35.5553 61.3483 38.6791 63.018 42.0798 63.6944C45.4806 64.3708 49.0055 64.0237 52.2089 62.6968C55.4123 61.3699 58.1504 59.1228 60.0767 56.2399C62.0031 53.3569 63.0313 49.9674 63.0313 46.5C63.0313 41.8504 61.1842 37.3913 57.8965 34.1035C54.6087 30.8158 50.1496 28.9688 45.5 28.9688Z" fill="white"/>
</g>
<defs>
<clipPath id="clip0_66_2641">
<rect width="51" height="51" fill="white" transform="translate(20 21)"/>
</clipPath>
</defs>
</svg>
