<svg width="117" height="117" viewBox="0 0 117 117" fill="none" xmlns="http://www.w3.org/2000/svg">
<path d="M0 20C0 8.9543 8.95431 0 20 0H70C81.0457 0 90 8.95431 90 20V70C90 81.0457 81.0457 90 70 90H28.7843C23.4799 90 18.3929 92.1071 14.6421 95.8579L5.12132 105.379C3.23142 107.269 0 105.93 0 103.257V20Z" fill="#115FAA"/>
<g clip-path="url(#clip0_66_2616)">
<path d="M44.1425 41.6175C44.4175 40.7925 45.5825 40.7925 45.8575 41.6175L47.47 46.46C47.8249 47.5245 48.4229 48.4917 49.2166 49.285C50.0103 50.0782 50.9778 50.6757 52.0425 51.03L56.8825 52.6425C57.7075 52.9175 57.7075 54.0825 56.8825 54.3575L52.04 55.97C50.9755 56.325 50.0083 56.923 49.2151 57.7166C48.4218 58.5103 47.8244 59.4778 47.47 60.5425L45.8575 65.3825C45.7982 65.5632 45.6834 65.7205 45.5294 65.832C45.3754 65.9436 45.1901 66.0036 45 66.0036C44.8099 66.0036 44.6246 65.9436 44.4706 65.832C44.3166 65.7205 44.2018 65.5632 44.1425 65.3825L42.53 60.54C42.1753 59.4758 41.5777 58.5088 40.7845 57.7156C39.9913 56.9223 39.0243 56.3247 37.96 55.97L33.1175 54.3575C32.9369 54.2983 32.7795 54.1834 32.668 54.0294C32.5565 53.8755 32.4964 53.6902 32.4964 53.5C32.4964 53.3099 32.5565 53.1246 32.668 52.9706C32.7795 52.8167 32.9369 52.7018 33.1175 52.6425L37.96 51.03C39.0243 50.6754 39.9913 50.0777 40.7845 49.2845C41.5777 48.4913 42.1753 47.5243 42.53 46.46L44.1425 41.6175ZM34.485 28.87C34.5209 28.7618 34.5899 28.6676 34.6824 28.6008C34.7748 28.534 34.886 28.4981 35 28.4981C35.1141 28.4981 35.2252 28.534 35.3177 28.6008C35.4101 28.6676 35.4792 28.7618 35.515 28.87L36.4825 31.775C36.915 33.07 37.93 34.085 39.225 34.5175L42.13 35.485C42.2383 35.5209 42.3325 35.5899 42.3993 35.6824C42.466 35.7749 42.502 35.886 42.502 36C42.502 36.1141 42.466 36.2252 42.3993 36.3177C42.3325 36.4101 42.2383 36.4792 42.13 36.515L39.225 37.4825C38.5863 37.6953 38.006 38.054 37.53 38.53C37.0539 39.006 36.6953 39.5864 36.4825 40.225L35.515 43.13C35.4792 43.2383 35.4101 43.3325 35.3177 43.3993C35.2252 43.4661 35.1141 43.502 35 43.502C34.886 43.502 34.7748 43.4661 34.6824 43.3993C34.5899 43.3325 34.5209 43.2383 34.485 43.13L33.5175 40.225C33.3047 39.5864 32.9461 39.006 32.4701 38.53C31.9941 38.054 31.4137 37.6953 30.775 37.4825L27.87 36.515C27.7618 36.4792 27.6675 36.4101 27.6008 36.3177C27.534 36.2252 27.498 36.1141 27.498 36C27.498 35.886 27.534 35.7749 27.6008 35.6824C27.6675 35.5899 27.7618 35.5209 27.87 35.485L30.775 34.5175C31.4137 34.3047 31.9941 33.9461 32.4701 33.4701C32.9461 32.9941 33.3047 32.4137 33.5175 31.775L34.485 28.87ZM52.1575 26.2475C52.1822 26.1764 52.2284 26.1146 52.2898 26.0709C52.3512 26.0273 52.4247 26.0038 52.5 26.0038C52.5754 26.0038 52.6488 26.0273 52.7102 26.0709C52.7716 26.1146 52.8178 26.1764 52.8425 26.2475L53.4875 28.1825C53.775 29.0475 54.4525 29.725 55.3175 30.0125L57.2525 30.6575C57.3237 30.6822 57.3854 30.7285 57.4291 30.7898C57.4728 30.8512 57.4963 30.9247 57.4963 31C57.4963 31.0754 57.4728 31.1489 57.4291 31.2102C57.3854 31.2716 57.3237 31.3179 57.2525 31.3425L55.3175 31.9875C54.8912 32.1293 54.5039 32.3686 54.1862 32.6862C53.8686 33.0039 53.6293 33.3913 53.4875 33.8175L52.8425 35.7525C52.8178 35.8237 52.7716 35.8855 52.7102 35.9291C52.6488 35.9728 52.5754 35.9963 52.5 35.9963C52.4247 35.9963 52.3512 35.9728 52.2898 35.9291C52.2284 35.8855 52.1822 35.8237 52.1575 35.7525L51.5125 33.8175C51.3707 33.3913 51.1315 33.0039 50.8138 32.6862C50.4961 32.3686 50.1088 32.1293 49.6825 31.9875L47.75 31.3425C47.6788 31.3179 47.6171 31.2716 47.5734 31.2102C47.5297 31.1489 47.5063 31.0754 47.5063 31C47.5063 30.9247 47.5297 30.8512 47.5734 30.7898C47.6171 30.7285 47.6788 30.6822 47.75 30.6575L49.685 30.0125C50.55 29.725 51.2275 29.0475 51.515 28.1825L52.1575 26.25V26.2475Z" fill="white"/>
</g>
<defs>
<clipPath id="clip0_66_2616">
<rect width="40" height="40" fill="white" transform="translate(25 26)"/>
</clipPath>
</defs>
</svg>
