<svg width="20" height="20" viewBox="0 0 20 20" fill="none" xmlns="http://www.w3.org/2000/svg">
<g clip-path="url(#clip0_148_368)">
<path d="M6.07617 17.3532L1.667 18.3332L2.647 13.924C2.00161 12.7168 1.66494 11.3687 1.667 9.99984C1.667 5.39734 5.39784 1.6665 10.0003 1.6665C14.6028 1.6665 18.3337 5.39734 18.3337 9.99984C18.3337 14.6023 14.6028 18.3332 10.0003 18.3332C8.63146 18.3352 7.28335 17.9986 6.07617 17.3532ZM5.83367 9.99984C5.83367 11.1049 6.27266 12.1647 7.05406 12.9461C7.83546 13.7275 8.89527 14.1665 10.0003 14.1665C11.1054 14.1665 12.1652 13.7275 12.9466 12.9461C13.728 12.1647 14.167 11.1049 14.167 9.99984H12.5003C12.5003 10.6629 12.2369 11.2988 11.7681 11.7676C11.2993 12.2364 10.6634 12.4998 10.0003 12.4998C9.33729 12.4998 8.70141 12.2364 8.23257 11.7676C7.76373 11.2988 7.50033 10.6629 7.50033 9.99984H5.83367Z" fill="white"/>
</g>
<defs>
<clipPath id="clip0_148_368">
<rect width="20" height="20" fill="white"/>
</clipPath>
</defs>
</svg>
