<svg width="14" height="14" viewBox="0 0 14 14" fill="none" xmlns="http://www.w3.org/2000/svg">
<g clip-path="url(#clip0_148_269)">
<path d="M7.58368 10.5V11.6667H9.91702V12.8333H4.08368V11.6667H6.41702V10.5H1.74568C1.66908 10.4995 1.59333 10.484 1.52275 10.4542C1.45218 10.4244 1.38818 10.381 1.33443 10.3264C1.28067 10.2718 1.23821 10.2072 1.20948 10.1362C1.18076 10.0652 1.16632 9.98918 1.16702 9.91258V2.33742C1.16702 2.01308 1.43243 1.75 1.74568 1.75H12.255C12.5747 1.75 12.8337 2.01192 12.8337 2.33742V9.91258C12.8337 10.2369 12.5683 10.5 12.255 10.5H7.58368Z" fill="#2277C8"/>
</g>
<defs>
<clipPath id="clip0_148_269">
<rect width="14" height="14" fill="white"/>
</clipPath>
</defs>
</svg>
