<svg width="14" height="14" viewBox="0 0 14 14" fill="none" xmlns="http://www.w3.org/2000/svg">
<g clip-path="url(#clip0_148_265)">
<path d="M7.21875 13.1251C5.53628 13.1251 3.92273 12.4567 2.73304 11.267C1.54336 10.0773 0.875 8.46379 0.875 6.78132C0.875 4.21101 2.35156 1.90647 4.63777 0.911435C4.71835 0.876319 4.80763 0.866286 4.89399 0.882643C4.98035 0.899001 5.05978 0.940991 5.12193 1.00314C5.18408 1.06529 5.22607 1.14472 5.24242 1.23108C5.25878 1.31744 5.24875 1.40672 5.21363 1.48729C4.95113 2.08995 4.8125 2.86186 4.8125 3.71882C4.8125 6.73429 7.26578 9.18757 10.2812 9.18757C11.1382 9.18757 11.9101 9.04893 12.5128 8.78643C12.5933 8.75132 12.6826 8.74129 12.769 8.75764C12.8553 8.774 12.9348 8.81599 12.9969 8.87814C13.0591 8.94029 13.1011 9.01972 13.1174 9.10608C13.1338 9.19244 13.1237 9.28172 13.0886 9.36229C12.0936 11.6485 9.78906 13.1251 7.21875 13.1251Z" fill="#2277C8"/>
</g>
<defs>
<clipPath id="clip0_148_265">
<rect width="14" height="14" fill="white"/>
</clipPath>
</defs>
</svg>
