<svg width="46" height="46" viewBox="0 0 46 46" fill="none" xmlns="http://www.w3.org/2000/svg">
<rect width="46" height="46" rx="10" fill="#F0E0B8"/>
<path d="M18.27 26.845C18.27 26.0983 18.34 25.3983 18.48 24.745C18.6433 24.0683 18.935 23.45 19.355 22.89C19.775 22.33 20.37 21.8283 21.14 21.385C21.4667 21.175 21.8867 20.93 22.4 20.65C22.9367 20.37 23.45 20.055 23.94 19.705C24.43 19.3317 24.8383 18.9 25.165 18.41C25.515 17.8967 25.69 17.3133 25.69 16.66C25.69 16.0067 25.5267 15.4583 25.2 15.015C24.8967 14.5717 24.4883 14.2333 23.975 14C23.485 13.7667 22.9483 13.65 22.365 13.65C21.6883 13.65 21.0817 13.8017 20.545 14.105C20.0083 14.385 19.5533 14.735 19.18 15.155C18.8067 15.575 18.4917 16.0067 18.235 16.45L15.19 14.35C15.61 13.3933 16.1817 12.5767 16.905 11.9C17.6517 11.2233 18.5033 10.71 19.46 10.36C20.44 10.01 21.455 9.835 22.505 9.835C23.3917 9.835 24.2667 9.975 25.13 10.255C25.9933 10.5117 26.775 10.92 27.475 11.48C28.175 12.04 28.735 12.7517 29.155 13.615C29.575 14.4783 29.785 15.5167 29.785 16.73C29.785 17.4767 29.6917 18.1417 29.505 18.725C29.3417 19.3083 29.0967 19.8333 28.77 20.3C28.4667 20.7433 28.0817 21.1517 27.615 21.525C27.1483 21.8983 26.6467 22.26 26.11 22.61C25.5033 22.9833 24.885 23.345 24.255 23.695C23.6483 24.045 23.135 24.465 22.715 24.955C22.3183 25.4217 22.12 26.0517 22.12 26.845H18.27ZM18.34 35V30.17H22.225V35H18.34Z" fill="#D2AD67"/>
</svg>
