<svg width="15" height="15" viewBox="0 0 15 15" fill="none" xmlns="http://www.w3.org/2000/svg">
<path d="M14.7406 13.4674L11.3469 10.0737C12.164 8.98606 12.605 7.66213 12.6035 6.30177C12.6035 2.827 9.77655 0 6.30177 0C2.827 0 0 2.827 0 6.30177C0 9.77655 2.827 12.6035 6.30177 12.6035C7.66213 12.605 8.98606 12.164 10.0737 11.3469L13.4674 14.7406C13.6392 14.8941 13.8632 14.9761 14.0935 14.9696C14.3239 14.9632 14.543 14.8688 14.7059 14.7059C14.8688 14.543 14.9632 14.3239 14.9696 14.0935C14.9761 13.8632 14.8941 13.6392 14.7406 13.4674ZM1.80051 6.30177C1.80051 5.41151 2.0645 4.54123 2.55911 3.801C3.05371 3.06077 3.75671 2.48383 4.57921 2.14314C5.40171 1.80245 6.30676 1.71331 7.17992 1.887C8.05308 2.06068 8.85513 2.48938 9.48465 3.1189C10.1142 3.74841 10.5429 4.55046 10.7165 5.42362C10.8902 6.29678 10.8011 7.20183 10.4604 8.02433C10.1197 8.84683 9.54277 9.54983 8.80254 10.0444C8.06231 10.539 7.19204 10.803 6.30177 10.803C5.1084 10.8016 3.96432 10.3269 3.12048 9.48307C2.27664 8.63922 1.80194 7.49514 1.80051 6.30177Z" fill="#6C9BC9"/>
</svg>
