<svg width="546" height="473" viewBox="0 0 546 473" fill="none" xmlns="http://www.w3.org/2000/svg">
<path fill-rule="evenodd" clip-rule="evenodd" d="M90.609 378.271C133.849 378.271 168.902 343.218 168.902 299.977C168.902 256.737 133.849 221.684 90.609 221.684C47.3689 221.684 12.3158 256.737 12.3158 299.977C12.3158 343.218 47.3689 378.271 90.609 378.271ZM90.609 390.586C140.651 390.586 181.218 350.019 181.218 299.977C181.218 249.935 140.651 209.368 90.609 209.368C40.567 209.368 0 249.935 0 299.977C0 350.019 40.567 390.586 90.609 390.586Z" fill="white"/>
<path fill-rule="evenodd" clip-rule="evenodd" d="M97.0608 81.5188C98.8422 81.5188 100.286 82.963 100.286 84.7444C100.286 86.5258 98.8422 87.97 97.0608 87.97C95.2793 87.97 93.8352 86.5258 93.8352 84.7444C93.8352 82.963 95.2793 81.5188 97.0608 81.5188ZM97.0608 78C100.786 78 103.805 81.0196 103.805 84.7444C103.805 88.4692 100.786 91.4888 97.0608 91.4888C93.336 91.4888 90.3164 88.4692 90.3164 84.7444C90.3164 81.0196 93.336 78 97.0608 78Z" fill="white"/>
<path fill-rule="evenodd" clip-rule="evenodd" d="M83.2782 265.669C82.9543 265.669 82.6917 265.407 82.6917 265.083C82.6917 264.759 82.9543 264.496 83.2782 264.496C83.602 264.496 83.8646 264.759 83.8646 265.083C83.8646 265.407 83.602 265.669 83.2782 265.669ZM83.2782 253.353C89.7561 253.353 95.0075 258.605 95.0075 265.083C95.0075 271.561 89.7561 276.812 83.2782 276.812C76.8002 276.812 71.5488 271.561 71.5488 265.083C71.5488 258.605 76.8002 253.353 83.2782 253.353Z" fill="white"/>
<path fill-rule="evenodd" clip-rule="evenodd" d="M316.986 460.376C436.665 460.376 533.685 363.356 533.685 243.677C533.685 123.997 436.665 26.9774 316.986 26.9774C197.306 26.9774 100.286 123.997 100.286 243.677C100.286 363.356 197.306 460.376 316.986 460.376ZM316.986 472.692C443.467 472.692 546.001 370.158 546.001 243.677C546.001 117.195 443.467 14.6616 316.986 14.6616C190.504 14.6616 87.9707 117.195 87.9707 243.677C87.9707 370.158 190.504 472.692 316.986 472.692Z" fill="white"/>
</svg>
