<svg width="221" height="458" viewBox="0 0 221 458" fill="none" xmlns="http://www.w3.org/2000/svg">
<g clip-path="url(#clip0_2197_435)">
<path fill-rule="evenodd" clip-rule="evenodd" d="M9.05979 66.5188C10.8412 66.5188 12.2854 67.963 12.2854 69.7444C12.2854 71.5258 10.8412 72.97 9.05979 72.97C7.27836 72.97 5.83423 71.5258 5.83423 69.7444C5.83423 67.963 7.27836 66.5188 9.05979 66.5188ZM9.05979 63C12.7846 63 15.8042 66.0196 15.8042 69.7444C15.8042 73.4692 12.7846 76.4888 9.05979 76.4888C5.33498 76.4888 2.31543 73.4692 2.31543 69.7444C2.31543 66.0196 5.33498 63 9.05979 63Z" fill="white"/>
<path fill-rule="evenodd" clip-rule="evenodd" d="M228.985 445.376C348.664 445.376 445.684 348.356 445.684 228.677C445.684 108.997 348.664 11.9774 228.985 11.9774C109.305 11.9774 12.2855 108.997 12.2855 228.677C12.2855 348.356 109.305 445.376 228.985 445.376ZM228.985 457.692C355.466 457.692 458 355.158 458 228.677C458 102.195 355.466 -0.338379 228.985 -0.338379C102.503 -0.338379 -0.0302734 102.195 -0.0302734 228.677C-0.0302734 355.158 102.503 457.692 228.985 457.692Z" fill="white"/>
</g>
<defs>
<clipPath id="clip0_2197_435">
<rect width="221" height="458" fill="white"/>
</clipPath>
</defs>
</svg>
