<svg width="117" height="117" viewBox="0 0 117 117" fill="none" xmlns="http://www.w3.org/2000/svg">
<path d="M0 20C0 8.9543 8.95431 0 20 0H70C81.0457 0 90 8.95431 90 20V70C90 81.0457 81.0457 90 70 90H28.7843C23.4799 90 18.3929 92.1071 14.6421 95.8579L5.12132 105.379C3.23142 107.269 0 105.93 0 103.257V20Z" fill="#115FAA"/>
<path d="M45.0001 21L46.3299 25.0925H50.6328L47.1515 27.6218L48.4814 31.7144L45.0001 29.1849L41.5186 31.7144L42.8485 27.6218L39.3672 25.0925H43.6702L45.0001 21Z" fill="white"/>
<path d="M27.3223 28.3229L31.1567 30.2764L34.1993 27.2339L33.526 31.4838L37.3602 33.4374L33.1101 34.1106L32.437 38.3609L30.4833 34.5266L26.2334 35.2L29.2761 32.1573L27.3223 28.3229Z" fill="white"/>
<path d="M20 45.9996L24.0925 44.6697V40.3667L26.6216 43.8481L30.7144 42.5183L28.1848 45.9996L30.7144 49.4809L26.6216 48.1512L24.0925 51.6325V47.3294L20 45.9996Z" fill="white"/>
<path d="M27.3223 63.6779L29.2759 59.8435L26.2334 56.8009L30.4835 57.4744L32.4368 53.6401L33.1101 57.8902L37.3601 58.5634L33.5263 60.517L34.1993 64.767L31.1567 61.7243L27.3223 63.6779Z" fill="white"/>
<path d="M45.0001 70.9999L43.6701 66.9074H39.3672L42.8486 64.3781L41.5186 60.2859L45.0001 62.815L48.4814 60.2859L47.1515 64.3781L50.6328 66.9074H46.3298L45.0001 70.9999Z" fill="white"/>
<path d="M62.6773 63.6779L58.843 61.7245L55.8002 64.7671L56.4736 60.5169L52.6396 58.5634L56.8896 57.8902L57.5628 53.6401L59.5162 57.4744L63.7662 56.8009L60.7235 59.8439L62.6773 63.6779Z" fill="white"/>
<path d="M70.0002 45.9996L65.9076 47.3294V51.6325L63.3784 48.151L59.2861 49.4809L61.8154 45.9996L59.2861 42.5183L63.3785 43.8481L65.9076 40.3667V44.6699L70.0002 45.9996Z" fill="white"/>
<path d="M62.6773 28.3228L60.7237 32.1572L63.7663 35.1998L59.5161 34.5263L57.5628 38.3606L56.8896 34.1105L52.6396 33.4371L56.4736 31.4837L55.8002 27.2339L58.8432 30.2764L62.6773 28.3228Z" fill="white"/>
</svg>
